<?xml version="1.0" encoding="UTF-8"?>
<svg xmlns="http://www.w3.org/2000/svg" xmlns:xlink="http://www.w3.org/1999/xlink" width="14px" height="16px" viewBox="0 0 14 16" version="1.1">
<g id="surface1">
<path style=" stroke:none;fill-rule:nonzero;fill:#fff;fill-opacity:1;" d="M 5 1 L 5 2 L 9 2 L 9 1 C 9 0.449219 9.445312 0 10 0 C 10.554688 0 11 0.449219 11 1 L 11 2 L 12.5 2 C 13.328125 2 14 2.671875 14 3.5 L 14 5 L 0 5 L 0 3.5 C 0 2.671875 0.671875 2 1.5 2 L 3 2 L 3 1 C 3 0.449219 3.445312 0 4 0 C 4.554688 0 5 0.449219 5 1 Z M 0 6 L 14 6 L 14 14.5 C 14 15.328125 13.328125 16 12.5 16 L 1.5 16 C 0.671875 16 0 15.328125 0 14.5 Z M 2 9.5 C 2 9.773438 2.222656 10 2.5 10 L 3.5 10 C 3.773438 10 4 9.773438 4 9.5 L 4 8.5 C 4 8.226562 3.773438 8 3.5 8 L 2.5 8 C 2.222656 8 2 8.226562 2 8.5 Z M 6 9.5 C 6 9.773438 6.226562 10 6.5 10 L 7.5 10 C 7.773438 10 8 9.773438 8 9.5 L 8 8.5 C 8 8.226562 7.773438 8 7.5 8 L 6.5 8 C 6.226562 8 6 8.226562 6 8.5 Z M 10.5 8 C 10.226562 8 10 8.226562 10 8.5 L 10 9.5 C 10 9.773438 10.226562 10 10.5 10 L 11.5 10 C 11.773438 10 12 9.773438 12 9.5 L 12 8.5 C 12 8.226562 11.773438 8 11.5 8 Z M 2 13.5 C 2 13.773438 2.222656 14 2.5 14 L 3.5 14 C 3.773438 14 4 13.773438 4 13.5 L 4 12.5 C 4 12.226562 3.773438 12 3.5 12 L 2.5 12 C 2.222656 12 2 12.226562 2 12.5 Z M 6.5 12 C 6.226562 12 6 12.226562 6 12.5 L 6 13.5 C 6 13.773438 6.226562 14 6.5 14 L 7.5 14 C 7.773438 14 8 13.773438 8 13.5 L 8 12.5 C 8 12.226562 7.773438 12 7.5 12 Z M 10 13.5 C 10 13.773438 10.226562 14 10.5 14 L 11.5 14 C 11.773438 14 12 13.773438 12 13.5 L 12 12.5 C 12 12.226562 11.773438 12 11.5 12 L 10.5 12 C 10.226562 12 10 12.226562 10 12.5 Z M 10 13.5 "/>
</g>
</svg>
